:SAMPLES-PER-SECOND 30
:FRAME-RANGE 1-744
:FULLY-SPECIFIED
:DEGREES
721
root  -49.5926 38.6823 0.144388 -5.15765 44.0356 5.49518
RightUpLeg  11.1349 -3.24989 0.641983
RightLeg  42.1735 20.8392 18.8464
RightFoot  -1.15315 -2.8089 30.7128
RightToes  5.82063e-011 0 -3.6325e-017
Spine  17.5264 8.5293 11.6977
Spine1  -0.768007 12.8973 -16.7726
HEad  -25.5261 62.9568 -21.5974
LeftShoulder1  2.60673 -2.37137 -38.2179
LeftArm  25.1073 4.47981 -20.2534
LeftForeArm  -10.6157 -3.62867 -19.4562
LeftHand  -0.582771 -5.15773 6.71677
RightShoulder  12.5942 12.7525 66.2131
RightArm  9.33286 6.41294 -4.73918
RightForeArm  17.9813 -0.758988 15.361
RightHand  1.9755 21.5507 7.91108
LeftUpLeg  -7.84964 -4.34337 -9.49752
LeftLeg  14.7071 0.263607 2.07251
LeftFoot  -0.371938 -0.875156 9.11678
LeftToes  1.25507e-010 -3.78807e-010 5.71421e-011
722
root  -49.0993 38.7851 1.07891 -4.54889 46.7055 6.40036
RightUpLeg  6.97572 -6.47719 -2.11166
RightLeg  47.662 14.476 16.1226
RightFoot  -2.17365 -2.05086 25.0166
RightToes  5.82063e-011 0 -3.6325e-017
Spine  17.4967 8.55982 11.3039
Spine1  -0.842849 12.805 -16.5665
HEad  -27.3947 66.8029 -24.2056
LeftShoulder1  2.60915 -2.40146 -38.0408
LeftArm  26.7521 1.1697 -22.262
LeftForeArm  -12.1686 -5.31315 -19.0205
LeftHand  -0.741741 -3.66179 9.76344
RightShoulder  11.4146 11.3593 65.7182
RightArm  9.37731 5.19209 -6.02458
RightForeArm  18.1963 -2.92161 15.7651
RightHand  1.90346 21.3495 7.6682
LeftUpLeg  -6.06069 -4.65047 -10.2047
LeftLeg  14.9521 -1.73452 1.73844
LeftFoot  -1.91576 -0.745709 9.16484
LeftToes  1.25507e-010 -3.78807e-010 5.71421e-011
723
root  -48.6155 38.9753 1.99632 -4.31091 49.84 6.67162
RightUpLeg  3.35253 -8.11975 -3.51943
RightLeg  49.6618 7.69314 9.27648
RightFoot  -4.49537 -1.20159 19.3993
RightToes  5.82063e-011 0 -3.6325e-017
Spine  17.169 8.36422 11.359
Spine1  -0.920887 12.5439 -15.9677
HEad  -28.4016 68.3811 -26.3254
LeftShoulder1  2.63468 -2.49865 -37.7634
LeftArm  23.7516 -2.07615 -24.5087
LeftForeArm  -6.60809 -5.31222 -18.5422
LeftHand  -0.916598 -5.46742 10.0942
RightShoulder  10.1551 9.92731 64.8443
RightArm  9.57748 3.81793 -6.95243
RightForeArm  18.3566 -4.91342 15.9991
RightHand  1.8238 21.1709 7.38161
LeftUpLeg  -3.7325 -5.23972 -10.5338
LeftLeg  14.0045 -4.0744 1.81852
LeftFoot  -2.7168 -0.666035 9.03026
LeftToes  1.25507e-010 -3.78807e-010 5.71421e-011
724
root  -48.1685 39.2103 2.89605 -4.80267 53.0659 6.39159
RightUpLeg  0.538126 -7.91678 -4.27124
RightLeg  49.6168 2.94025 3.3602
RightFoot  -7.13007 -0.519752 12.7623
RightToes  5.82063e-011 0 -3.6325e-017
Spine  17.436 7.75226 12.1068
Spine1  -1.4112 12.1058 -15.9969
HEad  -28.2175 68.3371 -26.9262
LeftShoulder1  2.61016 -2.53345 -37.1284
LeftArm  22.2067 -4.63532 -27.2362
LeftForeArm  -4.80377 -6.80266 -17.6553
LeftHand  -1.05988 -5.20299 11.8889
RightShoulder  8.97128 8.58136 63.8252
RightArm  10.5916 2.3438 -7.16242
RightForeArm  16.4868 -6.5055 16.3169
RightHand  1.4756 20.0235 6.17839
LeftUpLeg  -0.901277 -5.28859 -10.3689
LeftLeg  12.5023 -7.0223 2.07051
LeftFoot  -3.584 -0.5222 8.00759
LeftToes  1.25507e-010 -3.78807e-010 5.71421e-011
725
root  -47.7867 39.3897 3.76884 -4.81738 56.1322 6.27055
RightUpLeg  -2.13829 -5.49625 -5.01999
RightLeg  47.6137 -0.436835 -0.841091
RightFoot  -9.01251 -0.281542 10.7982
RightToes  5.82063e-011 0 -3.6325e-017
Spine  17.2125 7.28234 12.4005
Spine1  -1.64744 11.6391 -15.7268
HEad  -28.14 68.1483 -27.1922
LeftShoulder1  2.60643 -2.54808 -36.9679
LeftArm  22.7741 -6.90295 -29.675
LeftForeArm  -4.23964 -9.28826 -16.3019
LeftHand  -1.17381 -5.40792 12.8867
RightShoulder  8.10908 7.50208 63.4111
RightArm  12.5793 1.41129 -8.04818
RightForeArm  15.0039 -6.49959 16.8603
RightHand  1.94998 20.3749 8.19304
LeftUpLeg  1.19785 -4.41312 -9.69829
LeftLeg  11.158 -10.8868 1.93549
LeftFoot  -4.05185 -0.480748 7.91798
LeftToes  1.25507e-010 -3.78807e-010 5.71421e-011
726
root  -47.4387 39.5364 4.61997 -5.04865 59.3959 5.98041
RightUpLeg  -3.90499 -1.03438 -5.86784
RightLeg  43.7102 -2.95469 -3.31956
RightFoot  -10.2046 -0.161269 9.23345
RightToes  5.82063e-011 0 -3.6325e-017
Spine  17.1376 6.63907 12.821
Spine1  -1.85666 11.047 -15.5101
HEad  -28.3852 67.7647 -27.6793
LeftShoulder1  2.61935 -2.61952 -36.6865
LeftArm  27.4917 -9.00742 -32.2137
LeftForeArm  -6.22988 -12.8207 -14.2563
LeftHand  -1.3641 -5.82427 14.3757
RightShoulder  7.1491 6.31828 62.7423
RightArm  13.2465 0.612478 -8.46584
RightForeArm  15.2213 -6.22975 17.042
RightHand  2.20242 20.4517 9.28312
LeftUpLeg  3.09428 -3.968 -8.84413
LeftLeg  10.121 -14.641 1.97543
LeftFoot  -4.61241 -0.428915 7.75706
LeftToes  1.25507e-010 -3.78807e-010 5.71421e-011
727
root  -47.1652 39.6157 5.48698 -5.39221 62.5646 5.8385
RightUpLeg  -4.68658 4.1624 -7.41999
RightLeg  38.6038 -4.13561 -3.80074
RightFoot  -11.1591 -0.0879539 7.57978
RightToes  5.82063e-011 0 -3.6325e-017
Spine  17.754 6.23298 12.7342
Spine1  -2.60571 10.5397 -15.0289
HEad  -28.531 67.2191 -27.9929
LeftShoulder1  2.67002 -2.81238 -36.1994
LeftArm  33.953 -10.8188 -35.0167
LeftForeArm  -9.38129 -16.1707 -11.8189
LeftHand  -1.45318 -6.06715 14.9734
RightShoulder  5.99429 4.85509 61.9368
RightArm  14.2635 -0.262766 -8.79476
RightForeArm  14.7104 -6.07053 17.1733
RightHand  2.37136 20.6651 9.94111
LeftUpLeg  4.73674 -3.68699 -7.95645
LeftLeg  9.69703 -17.8444 2.08539
LeftFoot  -5.62649 -0.322551 7.13288
LeftToes  1.25507e-010 -3.78807e-010 5.71421e-011
728
root  -46.9126 39.6442 6.33577 -5.31213 66.56 5.84311
RightUpLeg  -4.69198 9.74596 -9.4895
RightLeg  32.5401 -5.41376 -3.95152
RightFoot  -10.9797 -0.0994749 7.84481
RightToes  5.82063e-011 0 -3.6325e-017
Spine  17.5057 5.49916 12.6257
Spine1  -2.54204 9.66888 -14.2664
HEad  -29.2529 66.5479 -28.7642
LeftShoulder1  2.71635 -2.98053 -35.8293
LeftArm  38.6248 -12.9711 -37.7818
LeftForeArm  -10.5446 -18.1642 -10.0241
LeftHand  -1.55179 -6.54786 15.3402
RightShoulder  5.18201 3.7895 61.4453
RightArm  14.2987 -0.750039 -9.36806
RightForeArm  15.649 -6.09634 17.1085
RightHand  2.71687 21.565 11.0445
LeftUpLeg  5.49793 -4.70821 -7.15322
LeftLeg  10.135 -20.7976 1.8784
LeftFoot  -6.87568 -0.210983 6.46748
LeftToes  1.25507e-010 -3.78807e-010 5.71421e-011
729
root  -46.6483 39.6044 7.26066 -4.2052 69.3728 6.97086
RightUpLeg  -4.31461 17.5782 -11.886
RightLeg  26.5796 -5.63029 -3.27725
RightFoot  -9.60705 -0.190757 8.26862
RightToes  5.82063e-011 0 -3.6325e-017
Spine  17.0653 5.44797 12.2469
Spine1  -2.21879 9.49508 -13.8725
HEad  -28.8693 66.0492 -28.2589
LeftShoulder1  2.74547 -3.14781 -35.229
LeftArm  41.7903 -14.69 -40.6787
LeftForeArm  -10.7229 -19.3486 -8.84106
LeftHand  -1.53999 -6.53518 15.2428
RightShoulder  4.56727 2.97121 61.0657
RightArm  13.9219 -1.18909 -9.76147
RightForeArm  15.7367 -6.23382 17.0126
RightHand  2.39606 20.6547 10.0536
LeftUpLeg  6.09757 -5.72986 -6.59389
LeftLeg  10.9034 -22.6967 1.60978
LeftFoot  -8.27689 -0.111789 6.03806
LeftToes  1.25507e-010 -3.78807e-010 5.71421e-011
730
root  -46.4079 39.5223 8.2427 -2.32318 72.2604 8.90633
RightUpLeg  -3.43033 27.465 -13.9662
RightLeg  21.7288 -6.82459 -3.19625
RightFoot  -7.78749 -0.316069 8.4629
RightToes  5.82063e-011 0 -3.6325e-017
Spine  16.6517 5.38809 11.5961
Spine1  -2.03509 9.23521 -13.4566
HEad  -27.9083 65.6438 -27.371
LeftShoulder1  2.77466 -3.26048 -34.9791
LeftArm  43.8867 -15.8267 -42.784
LeftForeArm  -10.2885 -20.274 -7.8641
LeftHand  -1.51508 -6.91432 14.5623
RightShoulder  4.22624 2.50792 60.8954
RightArm  13.9873 -1.39637 -10.1466
RightForeArm  15.9141 -6.24671 16.9946
RightHand  2.36442 20.7992 9.85611
LeftUpLeg  6.37749 -7.51863 -6.11009
LeftLeg  12.1664 -23.7948 1.03034
LeftFoot  -10.1338 0.00949651 4.88386
LeftToes  1.25507e-010 -3.78807e-010 5.71421e-011
731
root  -46.1942 39.4329 9.30866 -0.92627 74.8388 10.4551
RightUpLeg  -2.2114 38.2006 -14.6318
RightLeg  19.12 -8.99594 -3.65583
RightFoot  -5.92394 -0.343386 6.39794
RightToes  5.82063e-011 0 -3.6325e-017
Spine  16.5248 5.21772 11.3976
Spine1  -2.07415 8.99402 -13.2719
HEad  -26.8872 65.3761 -26.2272
LeftShoulder1  2.78977 -3.30085 -34.9585
LeftArm  45.3728 -16.2297 -43.7365
LeftForeArm  -10.4808 -21.3816 -6.80424
LeftHand  -1.52714 -7.06815 14.5012
RightShoulder  4.25589 2.52555 61.1148
RightArm  13.899 -1.23024 -10.2745
RightForeArm  15.4474 -6.21043 17.0434
RightHand  2.16298 20.1342 9.23136
LeftUpLeg  6.83191 -10.5393 -5.31551
LeftLeg  13.333 -23.8596 0.317067
LeftFoot  -11.6308 0.0815459 4.58305
LeftToes  1.25507e-010 -3.78807e-010 5.71421e-011
732
root  -45.9966 39.2562 10.4538 1.82867 77.3774 13.341
RightUpLeg  -0.706161 46.2443 -14.3802
RightLeg  18.239 -8.049 -3.15481
RightFoot  -5.67482 -0.334342 5.96869
RightToes  5.82063e-011 0 -3.6325e-017
Spine  16.1267 4.99693 11.29
Spine1  -1.74512 8.80127 -13.6379
HEad  -26.0735 65.1884 -25.1953
LeftShoulder1  2.77896 -3.28555 -34.8927
LeftArm  46.5325 -16.1897 -43.7944
LeftForeArm  -11.1108 -22.59 -5.93765
LeftHand  -1.56129 -7.30542 14.5498
RightShoulder  4.72698 3.09517 61.8999
RightArm  12.5247 -0.743183 -10.4332
RightForeArm  17.1032 -6.34942 16.8605
RightHand  2.3044 20.6116 9.66926
LeftUpLeg  6.8594 -15.1634 -4.64054
LeftLeg  15.084 -22.0831 -0.907183
LeftFoot  -13.4343 0.157521 4.20029
LeftToes  1.25507e-010 -3.78807e-010 5.71421e-011
733
root  -45.8549 38.968 11.7268 7.90906 80.2513 19.4709
RightUpLeg  1.28099 47.4825 -14.0822
RightLeg  16.7677 -5.48902 -2.0616
RightFoot  -6.23458 -0.696987 14.5994
RightToes  5.82063e-011 0 -3.6325e-017
Spine  16.1692 4.98203 10.2571
Spine1  -2.05512 8.52325 -13.6226
HEad  -25.1268 64.377 -24.2211
LeftShoulder1  2.77687 -3.24712 -35.0908
LeftArm  46.8409 -15.912 -43.5409
LeftForeArm  -11.0219 -23.1031 -5.7034
LeftHand  -1.59355 -7.51172 14.6133
RightShoulder  4.96713 3.38546 62.249
RightArm  13.9008 -0.585437 -10.1665
RightForeArm  15.0653 -6.26934 17.0229
RightHand  2.19423 20.2096 9.34144
LeftUpLeg  6.14343 -21.2637 -3.89155
LeftLeg  17.6416 -19.3501 -2.84159
LeftFoot  -15.7921 0.220543 3.23343
LeftToes  1.25507e-010 -3.78807e-010 5.71421e-011
734
root  -45.8 38.6437 13.0812 19.1213 83.0366 30.4466
RightUpLeg  2.84794 42.6993 -14.0019
RightLeg  15.1609 -2.26583 -1.0319
RightFoot  -9.77848 -0.402684 24.255
RightToes  5.82063e-011 0 -3.6325e-017
Spine  16.5058 5.01429 9.56327
Spine1  -2.60922 8.4258 -14.1953
HEad  -24.8665 62.8905 -23.5227
LeftShoulder1  2.77726 -3.25172 -35.069
LeftArm  46.852 -15.7883 -43.3154
LeftForeArm  -11.2217 -22.7552 -5.85733
LeftHand  -1.61337 -6.74951 15.6751
RightShoulder  5.25512 3.7018 62.8707
RightArm  11.5467 0.0406939 -9.50543
RightForeArm  17.2937 -6.78303 16.5112
RightHand  2.11055 20.3619 8.91047
LeftUpLeg  4.69334 -26.2322 -2.15711
LeftLeg  19.881 -18.0803 -5.06781
LeftFoot  -17.8473 0.239173 2.32251
LeftToes  1.25507e-010 -3.78807e-010 5.71421e-011
735
root  -45.8122 38.5367 14.3518 33.4812 85.5197 44.2876
RightUpLeg  3.6232 33.8784 -12.8556
RightLeg  14.5673 2.74404 -0.708655
RightFoot  -13.0347 0.232971 21.5662
RightToes  5.82063e-011 0 -3.6325e-017
Spine  16.6209 4.96338 10.6146
Spine1  -2.72247 8.66027 -14.3142
HEad  -25.3037 60.9478 -23.5213
LeftShoulder1  2.79699 -3.24754 -35.3803
LeftArm  47.8158 -15.9523 -42.3297
LeftForeArm  -12.372 -22.4009 -6.13523
LeftHand  -1.57582 -6.19442 16.0241
RightShoulder  5.87579 4.45107 63.5591
RightArm  11.2805 0.526154 -8.90947
RightForeArm  17.9901 -6.1163 16.2783
RightHand  1.81249 20.1822 7.64508
LeftUpLeg  3.73466 -29.2324 0.638996
LeftLeg  19.5007 -18.5605 -5.97214
LeftFoot  -18.4873 0.14657 0.570833
LeftToes  1.25507e-010 -3.78807e-010 5.71421e-011
